<svg id="图层_1" data-name="图层 1" xmlns="http://www.w3.org/2000/svg" viewBox="0 0 52.99 37.94"><defs><style>.cls-1{fill:#ec9bad;}</style></defs><path class="cls-1" d="M5.14,28H16.25l-1.43,9.9H3.74Z"/><path class="cls-1" d="M26.67,28H37.78l-1.43,9.9H25.27Zm.5-28H53L50.43,17.94l-7.44,6H27.28l1.4-9.9H39.9l.58-4.13H25.74Z"/><path class="cls-1" d="M9.34.32h4.42V6.53l4.39-4.39,3.12,3.1L16.85,9.65H23.1v4.4H16.85l4.42,4.42-3.12,3.12-4.39-4.42v6.24H9.34V17.17L5,21.59,1.83,18.47l4.41-4.42H0V9.65H6.24L1.83,5.24,5,2.14,9.34,6.56Z"/></svg>